HIERARCHY
ROOT hip
{
  OFFSET 0 0 0
  CHANNELS 6 Xposition Yposition Zposition Zrotation Yrotation Xrotation
  JOINT abdomen
  {
    OFFSET 0 20.6881 -0.73152
    CHANNELS 3 Zrotation Xrotation Yrotation
    JOINT chest
    {
      OFFSET 0 11.7043 -0.48768
      CHANNELS 3 Zrotation Xrotation Yrotation
      JOINT neck
      {
        OFFSET 0 22.1894 -2.19456
        CHANNELS 3 Zrotation Xrotation Yrotation
        JOINT head
        {
          OFFSET -0.24384 7.07133 1.2192
          CHANNELS 3 Zrotation Xrotation Yrotation
          JOINT leftEye
          {
            OFFSET 4.14528 8.04674 8.04672
            CHANNELS 3 Zrotation Xrotation Yrotation
            End Site
            {
              OFFSET 1 0 0
            }
          }
          JOINT rightEye
          {
            OFFSET -3.6576 8.04674 8.04672
            CHANNELS 3 Zrotation Xrotation Yrotation
            End Site
            {
              OFFSET 1 0 0
            }
          }
        }
      }
      JOINT rCollar
      {
        OFFSET -2.68224 19.2634 -4.8768
        CHANNELS 3 Zrotation Xrotation Yrotation
        JOINT rShldr
        {
          OFFSET -8.77824 -1.95073 1.46304
          CHANNELS 3 Zrotation Xrotation Yrotation
          JOINT rForeArm
          {
            OFFSET -28.1742 -1.7115 0.48768
            CHANNELS 3 Zrotation Xrotation Yrotation
            JOINT rHand
            {
              OFFSET -22.5879 0.773209 7.07136
              CHANNELS 3 Zrotation Xrotation Yrotation
              JOINT rThumb1
              {
                OFFSET -1.2192 -0.487915 3.41376
                CHANNELS 3 Zrotation Xrotation Yrotation
                JOINT rThumb2
                {
                  OFFSET -3.37035 -0.52449 3.41376
                  CHANNELS 3 Zrotation Xrotation Yrotation
                  End Site
                  {
                    OFFSET -1.78271 -1.18214 1.43049
                  }
                }
              }
              JOINT rIndex1
              {
                OFFSET -7.75947 0.938293 5.60832
                CHANNELS 3 Zrotation Xrotation Yrotation
                JOINT rIndex2
                {
                  OFFSET -2.54057 -0.884171 1.56538
                  CHANNELS 3 Zrotation Xrotation Yrotation
                  End Site
                  {
                    OFFSET -1.62519 -0.234802 1.16502
                  }
                }
              }
              JOINT rMid1
              {
                OFFSET -8.24714 1.18213 3.41376
                CHANNELS 3 Zrotation Xrotation Yrotation
                JOINT rMid2
                {
                  OFFSET -3.10165 -0.590103 1.0647
                  CHANNELS 3 Zrotation Xrotation Yrotation
                  End Site
                  {
                    OFFSET -2.48547 -0.328903 0.83742
                  }
                }
              }
              JOINT rRing1
              {
                OFFSET -8.82822 0.546677 1.51678
                CHANNELS 3 Zrotation Xrotation Yrotation
                JOINT rRing2
                {
                  OFFSET -2.60934 -0.819778 -0.0198488
                  CHANNELS 3 Zrotation Xrotation Yrotation
                  End Site
                  {
                    OFFSET -2.33842 -0.294052 0.168128
                  }
                }
              }
              JOINT rPinky1
              {
                OFFSET -8.27202 -0.0477905 -0.4584
                CHANNELS 3 Zrotation Xrotation Yrotation
                JOINT rPinky2
                {
                  OFFSET -1.82734 -0.647385 -0.700984
                  CHANNELS 3 Zrotation Xrotation Yrotation
                  End Site
                  {
                    OFFSET -1.69225 -0.51767 -0.607171
                  }
                }
              }
            }
          }
        }
      }
      JOINT lCollar
      {
        OFFSET 2.68224 19.2634 -4.8768
        CHANNELS 3 Zrotation Xrotation Yrotation
        JOINT lShldr
        {
          OFFSET 8.77824 -1.95073 1.46304
          CHANNELS 3 Zrotation Xrotation Yrotation
          JOINT lForeArm
          {
            OFFSET 28.1742 -1.7115 0.48768
            CHANNELS 3 Zrotation Xrotation Yrotation
            JOINT lHand
            {
              OFFSET 22.5879 0.773209 7.07136
              CHANNELS 3 Zrotation Xrotation Yrotation
              JOINT lThumb1
              {
                OFFSET 1.2192 -0.487915 3.41376
                CHANNELS 3 Zrotation Xrotation Yrotation
                JOINT lThumb2
                {
                  OFFSET 3.37035 -0.52449 3.41376
                  CHANNELS 3 Zrotation Xrotation Yrotation
                  End Site
                  {
                    OFFSET 1.78271 -1.18214 1.43049
                  }
                }
              }
              JOINT lIndex1
              {
                OFFSET 7.75947 0.938293 5.60832
                CHANNELS 3 Zrotation Xrotation Yrotation
                JOINT lIndex2
                {
                  OFFSET 2.54057 -0.884171 1.56538
                  CHANNELS 3 Zrotation Xrotation Yrotation
                  End Site
                  {
                    OFFSET 1.62519 -0.234802 1.16502
                  }
                }
              }
              JOINT lMid1
              {
                OFFSET 8.24714 1.18213 3.41376
                CHANNELS 3 Zrotation Xrotation Yrotation
                JOINT lMid2
                {
                  OFFSET 3.10165 -0.590103 1.0647
                  CHANNELS 3 Zrotation Xrotation Yrotation
                  End Site
                  {
                    OFFSET 2.48547 -0.328903 0.83742
                  }
                }
              }
              JOINT lRing1
              {
                OFFSET 8.82822 0.546677 1.51678
                CHANNELS 3 Zrotation Xrotation Yrotation
                JOINT lRing2
                {
                  OFFSET 2.60934 -0.819778 -0.0198488
                  CHANNELS 3 Zrotation Xrotation Yrotation
                  End Site
                  {
                    OFFSET 2.33842 -0.294052 0.168128
                  }
                }
              }
              JOINT lPinky1
              {
                OFFSET 8.27202 -0.0477905 -0.4584
                CHANNELS 3 Zrotation Xrotation Yrotation
                JOINT lPinky2
                {
                  OFFSET 1.82734 -0.647385 -0.700984
                  CHANNELS 3 Zrotation Xrotation Yrotation
                  End Site
                  {
                    OFFSET 1.69225 -0.51767 -0.607171
                  }
                }
              }
            }
          }
        }
      }
    }
  }
  JOINT rButtock
  {
    OFFSET -8.77824 4.35084 1.2192
    CHANNELS 3 Zrotation Xrotation Yrotation
    JOINT rThigh
    {
      OFFSET 0 -1.70687 -2.19456
      CHANNELS 3 Zrotation Xrotation Yrotation
      JOINT rShin
      {
        OFFSET 0 -36.8199 0.73152
        CHANNELS 3 Zrotation Xrotation Yrotation
        JOINT rFoot
        {
          OFFSET 0.73152 -45.1104 -5.12064
          CHANNELS 3 Zrotation Xrotation Yrotation
          End Site
          {
            OFFSET -1.1221 -3.69964 12.103
          }
        }
      }
    }
  }
  JOINT lButtock
  {
    OFFSET 8.77824 4.35084 1.2192
    CHANNELS 3 Zrotation Xrotation Yrotation
    JOINT lThigh
    {
      OFFSET 0 -1.70687 -2.19456
      CHANNELS 3 Zrotation Xrotation Yrotation
      JOINT lShin
      {
        OFFSET 0 -36.8199 0.73152
        CHANNELS 3 Zrotation Xrotation Yrotation
        JOINT lFoot
        {
          OFFSET -0.73152 -45.1104 -5.12064
          CHANNELS 3 Zrotation Xrotation Yrotation
          End Site
          {
            OFFSET 1.1221 -3.69964 12.103
          }
        }
      }
    }
  }
}
MOTION
Frames:	4
Frame Time:	0.03333
-1.86424 64.5573 -97.3794 171.93800354003906 -37.746700286865234 -167.5220184326172 -10.112700462341309 18.8102970123291 5.906630039215088 0.38860201835632324 -11.342900276184082 1.265549898147583 -6.301590442657471 11.397199630737305 -5.776509761810303 3.302419662475586 -27.934003829956055 -10.240299224853516 -0.0 0.0 -0.0 -0.0 0.0 -0.0 5.358879572731068e-13 -6.4142994301436e-13 -7.035729963043857e-13 18.279598236083984 -13.18429946899414 69.54010009765625 -17.85070037841797 -10.526398658752441 33.68720245361328 -0.16139398515224457 11.357902526855469 1.6177998781204224 3.1130100719423126e-09 8.550929742057178e-09 6.201319902032765e-09 5.434579897212188e-09 1.4860799701921223e-08 1.0702499331216586e-08 3.1130200639495342e-09 8.550940400198215e-09 6.201309687980938e-09 7.730909824371338 5.474879741668701 0.4173140823841095 3.1130100719423126e-09 8.550940400198215e-09 6.201319902032765e-09 2.9055399894714355 0.9651829600334167 0.10290199518203735 3.1130200639495342e-09 8.550940400198215e-09 6.201319902032765e-09 10.27859878540039 0.73180091381073 0.025912316516041756 3.1130100719423126e-09 8.550940400198215e-09 6.2013292279061716e-09 2.221669912338257 -0.733487069606781 -0.208919957280159 5.357730318428233e-13 -6.414279914504495e-13 -7.037339461168912e-13 -88.0718002319336 46.2567024230957 20.186996459960938 28.36349868774414 -37.59431076049805 -79.71509552001953 7.544309139251709 -58.714996337890625 13.371699333190918 4.394039798683025e-09 9.92536053345816e-10 -9.793189870155317e-11 7.560589487809466e-09 1.5304599809695674e-09 2.4449499716472367e-11 4.394030028720408e-09 9.925339439220693e-10 -9.792899130500743e-11 -7.730909824371338 5.474879741668701 -0.4173140823841095 4.394039798683025e-09 9.925380517472604e-10 -9.793209299058248e-11 -2.9055399894714355 0.9651829600334167 -0.10290199518203735 4.394039798683025e-09 9.925339439220693e-10 -9.792949784426241e-11 -10.27859878540039 0.73180091381073 -0.025912316516041756 4.394050012734851e-09 9.925380517472604e-10 -9.794090538584044e-11 -2.221669912338257 -0.733487069606781 0.208919957280159 -2.0321699480147914e-16 0.0 -3.8825099822884138e-19 -61.4684944152832 -67.76620483398438 -54.85070037841797 -4.233059883117676 77.85630798339844 4.267420291900635 -2.948960304260254 -0.26057693362236023 -11.325599670410156 2.0321699480147914e-16 0.0 3.8825099822884138e-19 18.208600997924805 -1.3395898342132568 -3.377650260925293 -0.09255389869213104 33.511199951171875 -2.203209400177002 9.009718894958496 -10.260499000549316 31.13810157775879
-0.532735 65.0214 -98.1073 171.8629913330078 -40.917205810546875 -166.32598876953125 -9.990499496459961 19.269500732421875 6.4546098709106445 -0.2767989933490753 -11.527097702026367 1.345329999923706 -5.8358306884765625 11.16200065612793 -5.031680107116699 2.4288201332092285 -28.229598999023438 -8.997672080993652 -0.0 0.0 -0.0 -0.0 0.0 -0.0 4.1046395340797737e-13 2.5634898189103895e-14 -1.079220046662499e-12 17.66050148010254 -12.333900451660156 69.89189147949219 -18.082502365112305 -10.773696899414062 34.210697174072266 -0.13448598980903625 10.40820026397705 1.4791698455810547 4.772670259001188e-09 7.974249705000602e-09 7.379319821865238e-09 8.309319454724573e-09 1.3862899272965024e-08 1.2728999188027501e-08 4.772679584874595e-09 7.974259474963219e-09 7.379309607813411e-09 7.730909824371338 5.474879741668701 0.4173140823841095 4.772670259001188e-09 7.974249705000602e-09 7.379319821865238e-09 2.9055399894714355 0.9651829600334167 0.10290199518203735 4.772679584874595e-09 7.974259474963219e-09 7.379319821865238e-09 10.27859878540039 0.73180091381073 0.025912316516041756 4.772670259001188e-09 7.974259474963219e-09 7.3793295918278545e-09 2.221669912338257 -0.733487069606781 -0.208919957280159 4.1028197007332567e-13 2.5626199160735594e-14 -1.0794399228630791e-12 -84.38159942626953 44.82920455932617 16.767898559570312 28.326900482177734 -38.082298278808594 -80.54100036621094 7.241940498352051 -58.032711029052734 13.015799522399902 5.55905987909e-09 1.7182000267013109e-09 -5.799919988724866e-10 9.588879912314496e-09 2.699599876976322e-09 -7.507129362593901e-10 5.55905987909e-09 1.7182000267013109e-09 -5.799850044674315e-10 -7.730909824371338 5.474879741668701 -0.4173140823841095 5.55905987909e-09 1.7182000267013109e-09 -5.799889457591689e-10 -2.9055399894714355 0.9651829600334167 -0.10290199518203735 5.55905987909e-09 1.7182000267013109e-09 -5.799909996717645e-10 -10.27859878540039 0.73180091381073 -0.025912316516041756 5.559070093141827e-09 1.7182000267013109e-09 -5.800009361678349e-10 -2.221669912338257 -0.733487069606781 0.208919957280159 -2.0321699480147914e-16 0.0 -3.8825099822884138e-19 -58.586997985839844 -68.55640411376953 -51.5629997253418 -4.168949604034424 77.61150360107422 4.122459411621094 -3.55614972114563 -0.8341610431671143 -13.34269905090332 2.0321699480147914e-16 0.0 3.8825099822884138e-19 19.407798767089844 -3.5116500854492188 -5.3453497886657715 -0.11618699878454208 31.890899658203125 -2.091870069503784 7.5864787101745605 -9.135030746459961 29.271400451660156
0.888614 65.62980000000002 -98.8848 171.44699096679688 -44.6554069519043 -164.8369903564453 -9.798130989074707 19.674100875854492 6.870240688323975 -0.8665909171104431 -11.728099822998047 1.4016599655151367 -5.260119915008545 10.911300659179688 -4.234870433807373 1.464959979057312 -28.460805892944336 -7.6876912117004395 -0.0 0.0 -0.0 -0.0 0.0 -0.0 -1.4629000322317204e-13 1.655259913510565e-12 -1.0206299781018169e-12 16.723201751708984 -11.331101417541504 70.02770233154297 -18.252601623535156 -10.957101821899414 34.59990310668945 -0.10268598794937134 9.077661514282227 1.2867100238800049 5.611819897666237e-09 1.6976797745371641e-09 5.788169499254536e-09 9.74418945531852e-09 2.980650171124921e-09 9.97772975352973e-09 5.6118301117180636e-09 1.6976797745371641e-09 5.7881597292919196e-09 7.730909824371338 5.474879741668701 0.4173140823841095 5.611819897666237e-09 1.6976797745371641e-09 5.788180157395573e-09 2.9055399894714355 0.9651829600334167 0.10290199518203735 5.6118301117180636e-09 1.6976797745371641e-09 5.788169499254536e-09 10.27859878540039 0.73180091381073 0.025912316516041756 5.611819897666237e-09 1.6976797745371641e-09 5.788180157395573e-09 2.221669912338257 -0.733487069606781 -0.208919957280159 -1.4644498992372884e-13 1.6552300979508217e-12 -1.020879995122792e-12 -80.50340270996094 43.594703674316406 13.062797546386719 28.26129722595215 -38.704002380371094 -81.62649536132812 7.192629814147949 -57.91899871826172 12.957598686218262 3.742989918009698e-09 2.0612400675190656e-09 -1.4589799368636136e-09 6.511139627463081e-09 3.387419900136024e-09 -2.3391200087985453e-09 3.7429801480470815e-09 2.0612200835046224e-09 -1.4589599528491703e-09 -7.730909824371338 5.474879741668701 -0.4173140823841095 3.742989918009698e-09 2.0612400675190656e-09 -1.4589799368636136e-09 -2.9055399894714355 0.9651829600334167 -0.10290199518203735 3.7429801480470815e-09 2.061229853467239e-09 -1.4589799368636136e-09 -10.27859878540039 0.73180091381073 -0.025912316516041756 3.742989918009698e-09 2.0612400675190656e-09 -1.4589899288708352e-09 -2.221669912338257 -0.733487069606781 0.208919957280159 -2.0321699480147914e-16 0.0 -3.8825099822884138e-19 -55.03889846801758 -69.17538452148438 -47.833404541015625 -4.037410736083984 77.21160125732422 3.9342799186706543 -4.205389976501465 -2.585209846496582 -13.607599258422852 2.0321699480147914e-16 0.0 3.8825099822884138e-19 20.846403121948242 -6.1734299659729 -7.193000316619873 -0.13637498021125793 30.250606536865234 -1.9466896057128906 6.002328872680664 -7.677069664001465 26.911598205566406
2.38526 66.36839999999998 -99.7435 170.33999633789062 -49.156005859375 -162.80296325683594 -9.758700370788574 20.11290168762207 7.057701110839844 -1.1732600927352905 -11.919200897216797 1.4203699827194214 -4.675900459289551 10.779000282287598 -3.3959996700286865 0.5651199817657471 -28.654300689697266 -6.284539222717285 -0.0 0.0 -0.0 -0.0 0.0 -0.0 -3.7493497347627913e-13 1.9238499682217025e-12 -6.868479851714071e-13 15.550200462341309 -9.991999626159668 69.65139770507812 -18.640199661254883 -11.39100170135498 35.47710037231445 -0.06504011154174805 7.352850437164307 1.0389599800109863 4.2526195898062724e-09 -1.5985099910409417e-09 3.0938998030194398e-09 7.374769239731904e-09 -2.745389915403962e-09 5.324700236286617e-09 4.2526195898062724e-09 -1.5985099910409417e-09 3.093889811012218e-09 7.730909824371338 5.474879741668701 0.4173140823841095 4.2526195898062724e-09 -1.5985099910409417e-09 3.0939100170712663e-09 2.9055399894714355 0.9651829600334167 0.10290199518203735 4.2526195898062724e-09 -1.5985099910409417e-09 3.0938998030194398e-09 10.27859878540039 0.73180091381073 0.025912316516041756 4.252609819843656e-09 -1.5985099910409417e-09 3.0938998030194398e-09 2.221669912338257 -0.733487069606781 -0.208919957280159 -3.7508199129086817e-13 1.923810069581755e-12 -6.870530078022241e-13 -76.01549530029297 42.93579864501953 8.417082786560059 28.178598403930664 -39.34510803222656 -82.75249481201172 7.500309944152832 -58.62200164794922 13.320699691772461 1.7649899319849283e-09 1.5161499833382663e-09 -1.2250600534002842e-09 3.0979399046060507e-09 2.532199783189526e-09 -2.0249399934613166e-09 1.7649899319849283e-09 1.516129999323823e-09 -1.2250298553340144e-09 -7.730909824371338 5.474879741668701 -0.4173140823841095 1.7649899319849283e-09 1.5161499833382663e-09 -1.2250600534002842e-09 -2.9055399894714355 0.9651829600334167 -0.10290199518203735 1.7649899319849283e-09 1.5161499833382663e-09 -1.2250600534002842e-09 -10.27859878540039 0.73180091381073 -0.025912316516041756 1.7649998129698474e-09 1.5161499833382663e-09 -1.2250699343852034e-09 -2.221669912338257 -0.733487069606781 0.208919957280159 -2.0321699480147914e-16 0.0 -3.8825099822884138e-19 -50.771602630615234 -69.66099548339844 -43.08390426635742 -3.8557801246643066 76.64189910888672 3.6825594902038574 -4.740879535675049 -4.006040096282959 -13.728697776794434 2.0321699480147914e-16 0.0 3.8825099822884138e-19 22.18220329284668 -9.806550025939941 -8.454390525817871 -0.14423300325870514 29.15509796142578 -1.7931501865386963 4.249119281768799 -5.488551139831543 24.15939712524414
